
<svg width="1284" height="2778" viewBox="0 0 1284 2778" xmlns="http://www.w3.org/2000/svg">
  <!-- الخلفية الداكنة المصمتة -->
  <rect width="1284" height="2778" fill="#1D1F21" />
  
  <defs>
    <linearGradient id="splashMetalCopper" x1="0%" y1="0%" x2="100%" y2="100%">
      <stop offset="0%" stop-color="#F2B591" />
      <stop offset="30%" stop-color="#DF8C5A" />
      <stop offset="70%" stop-color="#C26D3C" />
      <stop offset="100%" stop-color="#8F431B" />
    </linearGradient>

    <mask id="splashCapMask">
      <rect x="-1000" y="-1000" width="3000" height="3000" fill="white" />
      <!-- Mortarboard (Diamond) -->
      <path d="M 512 280 L 742 360 L 512 440 L 282 360 Z" fill="black" />
      
      <!-- Skull Cap (Base) -->
      <path d="M 380 415 Q 512 495 644 415 L 644 485 Q 512 565 380 485 Z" fill="black" />
      
      <!-- Tassel Cord -->
      <path d="M 512 360 Q 670 370 680 430" fill="none" stroke="black" stroke-width="12" stroke-linecap="round" />
      
      <!-- Tassel Fringe -->
      <rect x="668" y="430" width="24" height="40" rx="12" fill="black" />
      <path d="M 670 442 L 690 442" stroke="white" stroke-width="2.5" stroke-linecap="round" />
      <path d="M 674 452 L 674 465 M 680 452 L 680 465 M 686 452 L 686 465" stroke="white" stroke-width="2.5" stroke-linecap="round" />

      <!-- Center Button (Drawn on top) -->
      <circle cx="512" cy="360" r="16" fill="white" />
      <circle cx="512" cy="360" r="6" fill="black" />

      <!-- Dotted Route Path (GPS navigation path leading to the cap) -->
      <path d="M 512 800 C 412 720, 612 640, 512 560" fill="none" stroke="black" stroke-width="22" stroke-dasharray="0, 55" stroke-linecap="round" />
    </mask>
  </defs>

  <!-- الشعار متمركزاً -->
  <g transform="translate(130, 600)" mask="url(#splashCapMask)">
    <path d="M 286.84 530 A 260 260 0 1 1 737.16 530 L 512 920 Z" fill="url(#splashMetalCopper)" />
    
    <!-- Cutout Highlight (Top-left crescent) & Raised Button Outer Shadow -->
    <g transform="translate(-2, -3)">
      <g fill="#FFD2B8" opacity="0.6">
        <path d="M 512 280 L 742 360 L 512 440 L 282 360 Z" />
        <path d="M 380 415 Q 512 495 644 415 L 644 485 Q 512 565 380 485 Z" />
        <path d="M 512 800 C 412 720, 612 640, 512 560" fill="none" stroke="#FFD2B8" stroke-width="22" stroke-dasharray="0, 55" stroke-linecap="round" />
        <path d="M 512 360 Q 670 370 680 430" fill="none" stroke="#FFD2B8" stroke-width="12" stroke-linecap="round" />
        <rect x="668" y="430" width="24" height="40" rx="12" />
        <circle cx="512" cy="360" r="6" />
      </g>
      <circle cx="512" cy="360" r="16" fill="#3D1B0B" />
    </g>

    <!-- Cutout Shadow (Bottom-right crescent) & Raised Button Outer Highlight -->
    <g transform="translate(2, 3)">
      <g fill="#3D1B0B">
        <path d="M 512 280 L 742 360 L 512 440 L 282 360 Z" />
        <path d="M 380 415 Q 512 495 644 415 L 644 485 Q 512 565 380 485 Z" />
        <path d="M 512 800 C 412 720, 612 640, 512 560" fill="none" stroke="#3D1B0B" stroke-width="22" stroke-dasharray="0, 55" stroke-linecap="round" />
        <path d="M 512 360 Q 670 370 680 430" fill="none" stroke="#3D1B0B" stroke-width="12" stroke-linecap="round" />
        <rect x="668" y="430" width="24" height="40" rx="12" />
        <circle cx="512" cy="360" r="6" />
      </g>
      <circle cx="512" cy="360" r="16" fill="#FFD2B8" opacity="0.6" />
    </g>
  
  </g>
  
  <!-- اسم التطبيق والترجمة متمركزة في الأسفل -->
  <g transform="translate(642, 1950)">
    <text x="0" y="0" font-family="-apple-system, BlinkMacSystemFont, 'Segoe UI', Roboto, sans-serif" font-size="120" font-weight="bold" fill="#CF7C4B" text-anchor="middle" letter-spacing="8">SAIR</text>
    <text x="0" y="80" font-family="-apple-system, BlinkMacSystemFont, 'Segoe UI', Roboto, sans-serif" font-size="40" font-weight="500" fill="#FFFFFF" text-anchor="middle" opacity="0.6" letter-spacing="2">Smart University Transit</text>
    <text x="0" y="150" font-family="-apple-system, BlinkMacSystemFont, 'Segoe UI', Roboto, sans-serif" font-size="36" font-weight="normal" fill="#CF7C4B" text-anchor="middle" opacity="0.8">سير — نقل جامعي ذكي</text>
  </g>
</svg>

